# Blender v2.91.0 OBJ File: 'Map_-_NoFloor.blend'
# www.blender.org
mtllib door.mtl
o Cube_Cube.001
v 12.483075 37.031746 0.729418
v 12.483075 72.863457 0.729418
v -12.483075 37.031746 0.729420
v -12.483075 72.863457 0.729420
v 12.483075 37.031746 -0.729420
v 12.483075 72.863457 -0.729420
v -12.483075 37.031746 -0.729418
v -12.483075 72.863457 -0.729418
v -1.000420 37.067734 1.222136
v -1.000420 54.041264 1.222136
v -12.338426 37.067734 1.222136
v -12.338426 54.041264 1.222136
v -1.000420 37.067734 -1.006021
v -1.000420 54.041264 -1.006021
v -12.338426 37.067734 -1.006021
v -12.338426 54.041264 -1.006021
v -1.000420 55.627113 1.222136
v -1.000420 72.600647 1.222136
v -12.338426 55.627113 1.222136
v -12.338426 72.600647 1.222136
v -1.000420 55.627113 -1.006021
v -1.000420 72.600647 -1.006021
v -12.338426 55.627113 -1.006021
v -12.338426 72.600647 -1.006021
v 12.045620 37.067734 1.222135
v 12.045620 54.041264 1.222135
v 0.707615 37.067734 1.222136
v 0.707615 54.041264 1.222136
v 12.045620 37.067734 -1.006022
v 12.045620 54.041264 -1.006022
v 0.707615 37.067734 -1.006021
v 0.707615 54.041264 -1.006021
v 12.045620 55.627113 1.222135
v 12.045620 72.600647 1.222135
v 0.707615 55.627113 1.222136
v 0.707615 72.600647 1.222136
v 12.045620 55.627113 -1.006022
v 12.045620 72.600647 -1.006022
v 0.707615 55.627113 -1.006021
v 0.707615 72.600647 -1.006021
v -11.727198 52.562798 2.027673
v -11.727198 52.562798 0.190241
v -11.709544 52.383564 2.027673
v -11.709544 52.383564 0.190241
v -11.657265 52.211220 2.027673
v -11.657265 52.211220 0.190241
v -11.572367 52.052383 2.027673
v -11.572367 52.052383 0.190241
v -11.458112 51.913166 2.027673
v -11.458112 51.913166 0.190241
v -11.318892 51.798912 2.027673
v -11.318892 51.798912 0.190241
v -11.160059 51.714012 2.027673
v -11.160059 51.714012 0.190241
v -10.987714 51.661736 2.027673
v -10.987714 51.661732 0.190241
v -10.808481 51.644081 2.027673
v -10.808481 51.644081 0.190241
v -10.629249 51.661736 2.027673
v -10.629249 51.661732 0.190241
v -10.456904 51.714012 2.027673
v -10.456904 51.714012 0.190241
v -10.298070 51.798912 2.027673
v -10.298070 51.798912 0.190241
v -10.158852 51.913166 2.027673
v -10.158852 51.913166 0.190241
v -10.044597 52.052383 2.027673
v -10.044597 52.052383 0.190241
v -9.959699 52.211220 2.027673
v -9.959699 52.211220 0.190241
v -9.907418 52.383564 2.027673
v -9.907418 52.383564 0.190241
v -9.889765 52.562798 2.027673
v -9.889765 52.562798 0.190241
v -9.907418 52.742031 2.027673
v -9.907418 52.742031 0.190241
v -9.959699 52.914375 2.027673
v -9.959699 52.914375 0.190241
v -10.044598 53.073208 2.027673
v -10.044598 53.073208 0.190241
v -10.158852 53.212429 2.027673
v -10.158852 53.212429 0.190241
v -10.298070 53.326683 2.027673
v -10.298070 53.326683 0.190241
v -10.456904 53.411579 2.027673
v -10.456904 53.411579 0.190241
v -10.629250 53.463860 2.027673
v -10.629250 53.463860 0.190241
v -10.808482 53.481514 2.027673
v -10.808482 53.481514 0.190241
v -10.987715 53.463860 2.027673
v -10.987715 53.463860 0.190241
v -11.160060 53.411579 2.027673
v -11.160060 53.411579 0.190241
v -11.318894 53.326679 2.027673
v -11.318894 53.326679 0.190241
v -11.458113 53.212425 2.027673
v -11.458113 53.212425 0.190241
v -11.572367 53.073208 2.027673
v -11.572367 53.073208 0.190241
v -11.657266 52.914371 2.027673
v -11.657266 52.914371 0.190241
v -11.709545 52.742027 2.027673
v -11.709545 52.742027 0.190241
vt 0.375000 0.000000
vt 0.625000 0.000000
vt 0.625000 0.250000
vt 0.375000 0.250000
vt 0.625000 0.500000
vt 0.375000 0.500000
vt 0.625000 0.750000
vt 0.375000 0.750000
vt 0.625000 1.000000
vt 0.375000 1.000000
vt 0.125000 0.500000
vt 0.125000 0.750000
vt 0.875000 0.500000
vt 0.875000 0.750000
vt 0.375000 0.000000
vt 0.625000 0.000000
vt 0.625000 0.250000
vt 0.375000 0.250000
vt 0.625000 0.500000
vt 0.375000 0.500000
vt 0.625000 0.750000
vt 0.375000 0.750000
vt 0.625000 1.000000
vt 0.375000 1.000000
vt 0.125000 0.500000
vt 0.125000 0.750000
vt 0.875000 0.500000
vt 0.875000 0.750000
vt 0.375000 0.000000
vt 0.625000 0.000000
vt 0.625000 0.250000
vt 0.375000 0.250000
vt 0.625000 0.500000
vt 0.375000 0.500000
vt 0.625000 0.750000
vt 0.375000 0.750000
vt 0.625000 1.000000
vt 0.375000 1.000000
vt 0.125000 0.500000
vt 0.125000 0.750000
vt 0.875000 0.500000
vt 0.875000 0.750000
vt 0.375000 0.000000
vt 0.625000 0.000000
vt 0.625000 0.250000
vt 0.375000 0.250000
vt 0.625000 0.500000
vt 0.375000 0.500000
vt 0.625000 0.750000
vt 0.375000 0.750000
vt 0.625000 1.000000
vt 0.375000 1.000000
vt 0.125000 0.500000
vt 0.125000 0.750000
vt 0.875000 0.500000
vt 0.875000 0.750000
vt 0.375000 0.000000
vt 0.625000 0.000000
vt 0.625000 0.250000
vt 0.375000 0.250000
vt 0.625000 0.500000
vt 0.375000 0.500000
vt 0.625000 0.750000
vt 0.375000 0.750000
vt 0.625000 1.000000
vt 0.375000 1.000000
vt 0.125000 0.500000
vt 0.125000 0.750000
vt 0.875000 0.500000
vt 0.875000 0.750000
vt 1.000000 0.500000
vt 1.000000 1.000000
vt 0.968750 1.000000
vt 0.968750 0.500000
vt 0.937500 1.000000
vt 0.937500 0.500000
vt 0.906250 1.000000
vt 0.906250 0.500000
vt 0.875000 1.000000
vt 0.875000 0.500000
vt 0.843750 1.000000
vt 0.843750 0.500000
vt 0.812500 1.000000
vt 0.812500 0.500000
vt 0.781250 1.000000
vt 0.781250 0.500000
vt 0.750000 1.000000
vt 0.750000 0.500000
vt 0.718750 1.000000
vt 0.718750 0.500000
vt 0.687500 1.000000
vt 0.687500 0.500000
vt 0.656250 1.000000
vt 0.656250 0.500000
vt 0.625000 1.000000
vt 0.625000 0.500000
vt 0.593750 1.000000
vt 0.593750 0.500000
vt 0.562500 1.000000
vt 0.562500 0.500000
vt 0.531250 1.000000
vt 0.531250 0.500000
vt 0.500000 1.000000
vt 0.500000 0.500000
vt 0.468750 1.000000
vt 0.468750 0.500000
vt 0.437500 1.000000
vt 0.437500 0.500000
vt 0.406250 1.000000
vt 0.406250 0.500000
vt 0.375000 1.000000
vt 0.375000 0.500000
vt 0.343750 1.000000
vt 0.343750 0.500000
vt 0.312500 1.000000
vt 0.312500 0.500000
vt 0.281250 1.000000
vt 0.281250 0.500000
vt 0.250000 1.000000
vt 0.250000 0.500000
vt 0.218750 1.000000
vt 0.218750 0.500000
vt 0.187500 1.000000
vt 0.187500 0.500000
vt 0.156250 1.000000
vt 0.156250 0.500000
vt 0.125000 1.000000
vt 0.125000 0.500000
vt 0.093750 1.000000
vt 0.093750 0.500000
vt 0.062500 1.000000
vt 0.062500 0.500000
vt 0.296822 0.485388
vt 0.250000 0.490000
vt 0.203179 0.485389
vt 0.158156 0.471731
vt 0.116663 0.449553
vt 0.080295 0.419706
vt 0.050447 0.383337
vt 0.028269 0.341844
vt 0.014612 0.296822
vt 0.010000 0.250000
vt 0.014611 0.203179
vt 0.028269 0.158156
vt 0.050447 0.116663
vt 0.080294 0.080294
vt 0.116663 0.050447
vt 0.158156 0.028269
vt 0.203178 0.014612
vt 0.250000 0.010000
vt 0.296822 0.014612
vt 0.341844 0.028269
vt 0.383337 0.050447
vt 0.419706 0.080294
vt 0.449553 0.116663
vt 0.471731 0.158156
vt 0.485388 0.203178
vt 0.490000 0.250000
vt 0.485388 0.296822
vt 0.471731 0.341844
vt 0.449553 0.383337
vt 0.419706 0.419706
vt 0.383337 0.449553
vt 0.341844 0.471731
vt 0.031250 1.000000
vt 0.031250 0.500000
vt 0.000000 1.000000
vt 0.000000 0.500000
vt 0.750000 0.490000
vt 0.796822 0.485388
vt 0.841844 0.471731
vt 0.883337 0.449553
vt 0.919706 0.419706
vt 0.949553 0.383337
vt 0.971731 0.341844
vt 0.985388 0.296822
vt 0.990000 0.250000
vt 0.985388 0.203178
vt 0.971731 0.158156
vt 0.949553 0.116663
vt 0.919706 0.080294
vt 0.883337 0.050447
vt 0.841844 0.028269
vt 0.796822 0.014612
vt 0.750000 0.010000
vt 0.703178 0.014612
vt 0.658156 0.028269
vt 0.616663 0.050447
vt 0.580294 0.080294
vt 0.550447 0.116663
vt 0.528269 0.158156
vt 0.514611 0.203179
vt 0.510000 0.250000
vt 0.514612 0.296822
vt 0.528269 0.341844
vt 0.550447 0.383337
vt 0.580295 0.419706
vt 0.616663 0.449553
vt 0.658156 0.471731
vt 0.703179 0.485389
vn 0.0000 0.0000 1.0000
vn -1.0000 0.0000 0.0000
vn -0.0000 0.0000 -1.0000
vn 1.0000 0.0000 0.0000
vn 0.0000 -1.0000 0.0000
vn 0.0000 1.0000 0.0000
vn -0.9952 -0.0980 0.0000
vn -0.9569 -0.2903 0.0000
vn -0.8819 -0.4714 0.0000
vn -0.7730 -0.6344 0.0000
vn -0.6344 -0.7730 0.0000
vn -0.4714 -0.8819 0.0000
vn -0.2903 -0.9569 0.0000
vn -0.0980 -0.9952 0.0000
vn 0.0980 -0.9952 0.0000
vn 0.2903 -0.9569 0.0000
vn 0.4714 -0.8819 0.0000
vn 0.6344 -0.7730 0.0000
vn 0.7730 -0.6344 0.0000
vn 0.8819 -0.4714 0.0000
vn 0.9569 -0.2903 0.0000
vn 0.9952 -0.0980 0.0000
vn 0.9952 0.0980 0.0000
vn 0.9569 0.2903 0.0000
vn 0.8819 0.4714 0.0000
vn 0.7730 0.6344 0.0000
vn 0.6344 0.7730 0.0000
vn 0.4714 0.8819 0.0000
vn 0.2903 0.9569 0.0000
vn 0.0980 0.9952 0.0000
vn -0.0980 0.9952 0.0000
vn -0.2903 0.9569 0.0000
vn -0.4714 0.8819 0.0000
vn -0.6344 0.7730 0.0000
vn -0.7730 0.6344 0.0000
vn -0.8819 0.4714 0.0000
vn -0.9569 0.2903 0.0000
vn -0.9952 0.0980 0.0000
usemtl None
s off
f 1/1/1 2/2/1 4/3/1 3/4/1
f 3/4/2 4/3/2 8/5/2 7/6/2
f 7/6/3 8/5/3 6/7/3 5/8/3
f 5/8/4 6/7/4 2/9/4 1/10/4
f 3/11/5 7/6/5 5/8/5 1/12/5
f 8/5/6 4/13/6 2/14/6 6/7/6
f 9/15/1 10/16/1 12/17/1 11/18/1
f 11/18/2 12/17/2 16/19/2 15/20/2
f 15/20/3 16/19/3 14/21/3 13/22/3
f 13/22/4 14/21/4 10/23/4 9/24/4
f 11/25/5 15/20/5 13/22/5 9/26/5
f 16/19/6 12/27/6 10/28/6 14/21/6
f 17/29/1 18/30/1 20/31/1 19/32/1
f 19/32/2 20/31/2 24/33/2 23/34/2
f 23/34/3 24/33/3 22/35/3 21/36/3
f 21/36/4 22/35/4 18/37/4 17/38/4
f 19/39/5 23/34/5 21/36/5 17/40/5
f 24/33/6 20/41/6 18/42/6 22/35/6
f 25/43/1 26/44/1 28/45/1 27/46/1
f 27/46/2 28/45/2 32/47/2 31/48/2
f 31/48/3 32/47/3 30/49/3 29/50/3
f 29/50/4 30/49/4 26/51/4 25/52/4
f 27/53/5 31/48/5 29/50/5 25/54/5
f 32/47/6 28/55/6 26/56/6 30/49/6
f 33/57/1 34/58/1 36/59/1 35/60/1
f 35/60/2 36/59/2 40/61/2 39/62/2
f 39/62/3 40/61/3 38/63/3 37/64/3
f 37/64/4 38/63/4 34/65/4 33/66/4
f 35/67/5 39/62/5 37/64/5 33/68/5
f 40/61/6 36/69/6 34/70/6 38/63/6
f 41/71/7 42/72/7 44/73/7 43/74/7
f 43/74/8 44/73/8 46/75/8 45/76/8
f 45/76/9 46/75/9 48/77/9 47/78/9
f 47/78/10 48/77/10 50/79/10 49/80/10
f 49/80/11 50/79/11 52/81/11 51/82/11
f 51/82/12 52/81/12 54/83/12 53/84/12
f 53/84/13 54/83/13 56/85/13 55/86/13
f 55/86/14 56/85/14 58/87/14 57/88/14
f 57/88/15 58/87/15 60/89/15 59/90/15
f 59/90/16 60/89/16 62/91/16 61/92/16
f 61/92/17 62/91/17 64/93/17 63/94/17
f 63/94/18 64/93/18 66/95/18 65/96/18
f 65/96/19 66/95/19 68/97/19 67/98/19
f 67/98/20 68/97/20 70/99/20 69/100/20
f 69/100/21 70/99/21 72/101/21 71/102/21
f 71/102/22 72/101/22 74/103/22 73/104/22
f 73/104/23 74/103/23 76/105/23 75/106/23
f 75/106/24 76/105/24 78/107/24 77/108/24
f 77/108/25 78/107/25 80/109/25 79/110/25
f 79/110/26 80/109/26 82/111/26 81/112/26
f 81/112/27 82/111/27 84/113/27 83/114/27
f 83/114/28 84/113/28 86/115/28 85/116/28
f 85/116/29 86/115/29 88/117/29 87/118/29
f 87/118/30 88/117/30 90/119/30 89/120/30
f 89/120/31 90/119/31 92/121/31 91/122/31
f 91/122/32 92/121/32 94/123/32 93/124/32
f 93/124/33 94/123/33 96/125/33 95/126/33
f 95/126/34 96/125/34 98/127/34 97/128/34
f 97/128/35 98/127/35 100/129/35 99/130/35
f 99/130/36 100/129/36 102/131/36 101/132/36
f 44/133/3 42/134/3 104/135/3 102/136/3 100/137/3 98/138/3 96/139/3 94/140/3 92/141/3 90/142/3 88/143/3 86/144/3 84/145/3 82/146/3 80/147/3 78/148/3 76/149/3 74/150/3 72/151/3 70/152/3 68/153/3 66/154/3 64/155/3 62/156/3 60/157/3 58/158/3 56/159/3 54/160/3 52/161/3 50/162/3 48/163/3 46/164/3
f 101/132/37 102/131/37 104/165/37 103/166/37
f 103/166/38 104/165/38 42/167/38 41/168/38
f 41/169/1 43/170/1 45/171/1 47/172/1 49/173/1 51/174/1 53/175/1 55/176/1 57/177/1 59/178/1 61/179/1 63/180/1 65/181/1 67/182/1 69/183/1 71/184/1 73/185/1 75/186/1 77/187/1 79/188/1 81/189/1 83/190/1 85/191/1 87/192/1 89/193/1 91/194/1 93/195/1 95/196/1 97/197/1 99/198/1 101/199/1 103/200/1
